<svg width="136" height="179" viewBox="0 0 136 179" fill="none" xmlns="http://www.w3.org/2000/svg">
<g filter="url(#filter0_d_3_50)">
<path d="M50.7428 98.8304L67.2276 108.348L33.7522 166.329L24.1441 144.901L50.7428 98.8304Z" fill="#CE4444"/>
<path d="M50.7428 98.8304L34.258 89.3129L0.782645 147.294L24.1441 144.901L50.7428 98.8304Z" fill="#983535"/>
<path d="M74.2608 98.8304L57.776 108.348L91.2514 166.329L100.859 144.901L74.2608 98.8304Z" fill="#983535"/>
<path d="M74.2608 98.8304L90.7456 89.3129L124.221 147.294L100.859 144.901L74.2608 98.8304Z" fill="#CE4444"/>
<circle cx="61.9962" cy="58.9081" r="57.2539" fill="url(#paint0_linear_3_50)" stroke="#765C00"/>
<circle cx="61.9962" cy="58.9081" r="44.3016" fill="#A88300"/>
<mask id="mask0_3_50" style="mask-type:alpha" maskUnits="userSpaceOnUse" x="19" y="19" width="90" height="90">
<circle cx="64.361" cy="63.6376" r="44.4047" fill="#C28B37"/>
</mask>
<g mask="url(#mask0_3_50)">
<circle cx="61.9962" cy="58.9081" r="44.4047" fill="#C09525"/>
</g>
<path d="M62.2357 28.0167L71.8144 47.1741L90.9718 49.5688L77.8171 64.32L81.3931 85.489L62.2357 75.9103L43.0782 85.489L46.6862 64.32L33.4995 49.5688L52.657 47.1741L62.2357 28.0167Z" fill="url(#paint1_linear_3_50)"/>
</g>
<defs>
<filter id="filter0_d_3_50" x="-0.000851631" y="0.370677" width="135.974" height="177.711" filterUnits="userSpaceOnUse" color-interpolation-filters="sRGB">
<feFlood flood-opacity="0" result="BackgroundImageFix"/>
<feColorMatrix in="SourceAlpha" type="matrix" values="0 0 0 0 0 0 0 0 0 0 0 0 0 0 0 0 0 0 127 0" result="hardAlpha"/>
<feOffset dx="5.48449" dy="5.48449"/>
<feGaussianBlur stdDeviation="3.13399"/>
<feComposite in2="hardAlpha" operator="out"/>
<feColorMatrix type="matrix" values="0 0 0 0 0 0 0 0 0 0 0 0 0 0 0 0 0 0 0.3 0"/>
<feBlend mode="normal" in2="BackgroundImageFix" result="effect1_dropShadow_3_50"/>
<feBlend mode="normal" in="SourceGraphic" in2="effect1_dropShadow_3_50" result="shape"/>
</filter>
<linearGradient id="paint0_linear_3_50" x1="61.9962" y1="2.15417" x2="61.9962" y2="115.662" gradientUnits="userSpaceOnUse">
<stop stop-color="#FFC600"/>
<stop offset="1" stop-color="#FFDE69"/>
</linearGradient>
<linearGradient id="paint1_linear_3_50" x1="62.2357" y1="28.0167" x2="62.2357" y2="85.489" gradientUnits="userSpaceOnUse">
<stop stop-color="#FFFCDD"/>
<stop offset="1" stop-color="#FFE896"/>
</linearGradient>
</defs>
</svg>
